<?xml version="1.0" encoding="utf-8"?>
<!-- Generator: Adobe Illustrator 24.0.2, SVG Export Plug-In . SVG Version: 6.00 Build 0)  -->
<svg version="1.1" id="Calque_1" xmlns="http://www.w3.org/2000/svg" xmlns:xlink="http://www.w3.org/1999/xlink" x="0px" y="0px"
	 viewBox="0 0 1626.7 298.4" style="enable-background:new 0 0 1626.7 298.4;" xml:space="preserve">
<style type="text/css">
	.st0{fill:#FFFFFF;}
	.st1{fill:none;stroke:#FFFFFF;stroke-width:0.4467;stroke-miterlimit:10;}
	.st2{fill:url(#SVGID_1_);}
	.st3{fill:#00B2CB;}
	.st4{fill:#00B2CA;}
</style>
<g>
	<g>
		<path class="st0" d="M465.1,66.2c24.8,22.7,37.2,54.2,37.2,94.6s-12.1,72.3-36.2,95.9c-24.2,23.5-61,35.3-110.5,35.3h-88.8V32.2
			h91.8C404.8,32.2,440.3,43.5,465.1,66.2z M422.6,220.6c14.2-13.4,21.4-32.8,21.4-58.3s-7.1-45.1-21.4-58.9
			c-14.2-13.7-36.1-20.6-65.6-20.6h-32.3v157.9h36.7C388,240.7,408.3,234,422.6,220.6z"/>
		<path class="st0" d="M745.9,128.4l-70.2,142h-34.6l-69.9-142v163.5h-58V32.2h78.4l66.9,142.7l67.3-142.7h78v259.7h-58L745.9,128.4
			L745.9,128.4z"/>
		<path class="st0" d="M195.9,159.6h58.3v92.1c-25.8,28.7-61.4,43.1-107,43.1c-38.1,0-70.2-12.6-96-37.9
			c-25.9-25.3-38.8-57.2-38.8-95.7S25.6,90.5,52,64.8c26.4-25.8,58.2-38.6,95.5-38.6s69.7,12.3,97.2,36.8l-30.3,43.5
			c-11.6-10.2-22.4-17.1-32.1-21c-9.8-3.8-20.4-5.8-31.8-5.8c-22.1,0-40.6,7.5-55.7,22.5c-15.1,15-22.7,34.7-22.7,59.3
			s7.2,44.2,21.7,58.9c14.5,14.7,31.8,22.1,51.8,22.1s36.8-3.8,50.2-11.5v-71.4H195.9z"/>
	</g>
	<path class="st1" d="M1281,289.3"/>
	<g>
		<path class="st0" d="M1075.1,53.5c18.3,15.5,27.4,39.4,27.4,71.6s-9.4,55.8-28.2,70.7c-18.8,14.9-47.4,22.4-86,22.4h-34.7V291
			h-58.2V30.2h92.2C1027.7,30.2,1056.9,38,1075.1,53.5z M1032.4,156.1c7-7.8,10.4-19.3,10.4-34.3s-4.5-25.7-13.6-32.1
			c-9.1-6.3-23.2-9.5-42.3-9.5h-33.2v87.7h39.2C1012.3,167.9,1025.5,163.9,1032.4,156.1z"/>
		<path class="st0" d="M1554.6,180.5c0-29.1-9.6-52-28.9-68.6c-19.3-16.7-42.7-25-70.3-25c-17.9,0-34.3,4-49.1,11.9l-51.8,73.5
			c-0.8,5.8-1.3,11.7-1.3,17.9c0,31.6,9.9,56.8,29.8,75.6c19.9,18.8,45.1,28.2,75.6,28.2s57-10.7,79.7-32.1L1507,228
			c-12.7,13.2-28.9,19.8-48.5,19.8c-12.2,0-23.1-3.5-32.8-10.4c-9.7-7-15.4-15.9-17.2-26.9h146.3v-30H1554.6z M1409.9,170.5
			c1.5-11.4,6.8-20.5,16-27.2s19.3-10.1,30.4-10.1s20.5,3.2,28.2,9.7s12.2,15.7,13.4,27.6H1409.9z"/>
		<path class="st0" d="M1617.7,291h-56V14.1h56V291z"/>
		<path class="st0" d="M1167.6,291h-56V90.2h56V291z"/>
	</g>
	
		<linearGradient id="SVGID_1_" gradientUnits="userSpaceOnUse" x1="2072.8474" y1="-3.8166" x2="2159.9973" y2="83.3334" gradientTransform="matrix(-1 0 0 -1 3446.2285 295.9912)">
		<stop  offset="0.7586" style="stop-color:#00B2CB"/>
		<stop  offset="0.9741" style="stop-color:#0076A3"/>
	</linearGradient>
	<polygon class="st2" points="1310.6,188.3 1382.2,291 1315.7,291 1276.7,236.4 	"/>
	<polygon class="st0" points="1111.6,78.2 1139.6,36.1 1167.6,78.2 	"/>
	<g>
		<polygon class="st3" points="1268.7,128.6 1244.2,90.3 1177.4,90.3 1235,175.7 		"/>
		<polygon class="st3" points="1432.9,14.1 1367,14.3 1226.8,214.9 1226.8,214.9 1173.6,291 1238.2,291 1375.9,95 1379.3,90.2 		"/>
	</g>
	<g>
		<polygon class="st4" points="835,126.1 865.8,126.1 819.7,172.1 840.2,193.7 825.4,208.6 788.4,172.7 		"/>
		<polygon class="st4" points="868.3,137.9 852.4,153.7 874.3,175.2 827.1,221.8 858.4,221.8 904.6,175 		"/>
	</g>
	
		<rect x="823.6" y="148.1" transform="matrix(0.5516 -0.8341 0.8341 0.5516 236.5417 784.1401)" class="st0" width="47.9" height="47.9"/>
</g>
</svg>
