<svg width="282" height="87" viewBox="0 0 282 87" fill="none" xmlns="http://www.w3.org/2000/svg">
<rect width="280.773" height="87" transform="translate(0.619141)" fill="white"/>
<path d="M23.291 43.355C23.2891 48.2647 24.6691 53.0762 27.2736 57.2406C29.8781 61.4051 33.6024 64.755 38.0216 66.9082C42.4409 69.0615 47.3772 69.9314 52.2678 69.4189C57.1583 68.9064 61.8061 67.032 65.6812 64.0095L60.1465 57.8228C57.6069 59.6903 54.6195 60.8572 51.4848 61.2059C48.3502 61.5547 45.1788 61.0731 42.2897 59.8096C39.4007 58.5461 36.8959 56.5452 35.0272 54.0082C33.1586 51.4712 31.9921 48.4877 31.645 45.3577C31.298 42.2277 31.7826 39.0616 33.0502 36.178C34.3178 33.2944 36.3237 30.7949 38.866 28.931C41.4083 27.0672 44.3973 25.9046 47.5325 25.5604C50.6677 25.2161 53.8383 25.7023 56.7256 26.97L59.9528 19.3334C55.9626 17.6041 51.6041 16.8932 47.2701 17.2646C42.9361 17.6361 38.7627 19.0782 35.126 21.4611C31.4892 23.8439 28.5033 27.0927 26.4373 30.9147C24.3713 34.7367 23.2901 39.0119 23.291 43.355Z" fill="#144676"/>
<path d="M35.5382 43.355C35.5425 47.0612 37.02 50.614 39.6462 53.2331C42.2725 55.8522 45.8326 57.3234 49.5445 57.3234C52.3634 57.2993 55.1068 56.4107 57.4029 54.7778C57.4029 54.7778 52.207 48.9778 51.7391 48.4945C51.0435 48.7844 50.2983 48.9376 49.5445 48.9456C48.0409 48.9456 46.5986 48.3503 45.5339 47.2903C44.4691 46.2302 43.8688 44.7919 43.8645 43.2906C43.8687 41.7791 44.4686 40.3299 45.5346 39.2565C46.6005 38.1832 48.0469 37.572 49.5607 37.555C50.3517 37.5542 51.1334 37.7246 51.852 38.0545L55.0793 30.5145C53.3117 29.7467 51.4076 29.3413 49.48 29.3223C45.7681 29.3223 42.2079 30.7934 39.5817 33.4125C36.9555 36.0316 35.4779 39.5845 35.4736 43.2906" fill="#144676"/>
<path d="M59.9686 37.9255C60.8335 39.6068 61.2974 41.465 61.3241 43.355C61.2449 46.0168 60.3306 48.5866 58.71 50.7017L64.3254 56.8883C67.1037 53.9063 68.9019 50.1472 69.4788 46.1154C70.0557 42.0837 69.3836 37.9722 67.5527 34.3328L59.9686 37.9255Z" fill="#C30044"/>
<path d="M57.6452 34.8321L71.8936 28.1459C69.8171 25.0672 67.1251 22.4506 63.9868 20.4609L57.5322 34.7837L57.6452 34.8321Z" fill="#C30044"/>
<path d="M103.053 17.6256C104.149 18.0463 105.164 18.6511 106.055 19.4139L103.602 22.3462C103.02 21.8798 102.373 21.5 101.682 21.2184C101.041 20.9588 100.356 20.8275 99.6646 20.8317C98.9736 20.818 98.2905 20.981 97.6804 21.3053C97.0703 21.6296 96.5535 22.1044 96.1791 22.6845C95.2105 24.4341 94.7679 26.4256 94.9044 28.42C94.7701 30.3835 95.2131 32.3434 96.1791 34.0589C96.5634 34.6433 97.0918 35.1192 97.7135 35.4409C98.3352 35.7625 99.0293 35.9191 99.7291 35.8956C100.48 35.9066 101.223 35.7526 101.908 35.4445C102.65 35.0821 103.352 34.6448 104.005 34.1395L106.313 37.0556C105.445 37.8979 104.434 38.5798 103.328 39.0695C102.111 39.5957 100.797 39.8593 99.471 39.8428C97.6342 39.9034 95.8157 39.4634 94.2105 38.5701C92.6788 37.6471 91.4635 36.282 90.725 34.6551C89.8504 32.6952 89.4259 30.5649 89.4825 28.42C89.4339 26.3037 89.8699 24.2043 90.7573 22.2817C91.5229 20.6573 92.7524 19.2952 94.2912 18.3667C95.8428 17.465 97.6113 17.0027 99.4064 17.0295C100.648 17.0055 101.884 17.2075 103.053 17.6256Z" fill="#144676"/>
<path d="M120.222 17.6256C121.328 18.043 122.355 18.648 123.255 19.4139L120.803 22.3462C120.22 21.8798 119.573 21.5 118.882 21.2184C118.222 20.9504 117.514 20.8189 116.801 20.8317C116.11 20.8179 115.427 20.981 114.817 21.3053C114.206 21.6296 113.69 22.1044 113.315 22.6845C112.347 24.4341 111.904 26.4256 112.04 28.42C111.906 30.3835 112.349 32.3434 113.315 34.0589C113.7 34.6433 114.228 35.1192 114.85 35.4409C115.471 35.7625 116.165 35.9191 116.865 35.8956C117.627 35.9114 118.382 35.7573 119.076 35.4445C119.821 35.0784 120.529 34.6414 121.19 34.1395L123.481 37.0556C122.616 37.8943 121.612 38.5758 120.512 39.0695C119.29 39.5956 117.97 39.8591 116.639 39.8428C114.798 39.8887 112.979 39.4319 111.379 38.5217C109.848 37.6026 108.637 36.2359 107.91 34.6067C107.022 32.6505 106.592 30.5184 106.651 28.3717C106.6 26.2534 107.042 24.1522 107.942 22.2334C108.696 20.6063 109.921 19.2425 111.46 18.3184C113.011 17.4167 114.78 16.9544 116.575 16.9812C117.817 16.9572 119.052 17.1592 120.222 17.5773" fill="#144676"/>
<path d="M130.63 17.561H125.467V39.3594H130.63V17.561Z" fill="#144676"/>
<path d="M154.092 17.6256C155.205 18.0413 156.237 18.6464 157.142 19.4139L154.689 22.3462C154.107 21.8798 153.46 21.5 152.769 21.2184C152.129 20.9588 151.443 20.8274 150.752 20.8317C150.061 20.8179 149.378 20.981 148.768 21.3053C148.158 21.6296 147.641 22.1044 147.267 22.6845C146.29 24.4311 145.847 26.4249 145.992 28.42C145.849 30.3842 146.293 32.3465 147.267 34.0589C147.651 34.6433 148.179 35.1192 148.801 35.4409C149.423 35.7625 150.117 35.9191 150.817 35.8956C151.551 35.8996 152.277 35.7457 152.947 35.4445C153.689 35.0821 154.392 34.6448 155.044 34.1395L157.352 37.0556C156.484 37.8979 155.473 38.5798 154.367 39.0695C153.15 39.5957 151.836 39.8593 150.51 39.8428C148.669 39.8887 146.85 39.4319 145.25 38.5217C143.718 37.5988 142.503 36.2337 141.764 34.6067C140.889 32.6469 140.465 30.5165 140.522 28.3717C140.473 26.2554 140.909 24.1559 141.796 22.2334C142.562 20.609 143.791 19.2469 145.33 18.3184C146.882 17.4167 148.65 16.9544 150.445 16.9812C151.687 16.9572 152.923 17.1592 154.092 17.5773" fill="#144676"/>
<path d="M164.226 30.9333H168.825L166.517 21.2666L164.226 30.9333ZM170.826 39.3594L169.696 34.671H163.338L162.225 39.3594H156.884L163.467 17.561H169.728L176.312 39.3594H170.826Z" fill="#144676"/>
<path d="M190.996 17.561L190.463 21.2505H182.782V26.4705H189.479V30.0794H182.782V35.6538H190.996V39.3594H177.603V17.561H190.996Z" fill="#144676"/>
<path d="M210.682 39.3594H204.099L197.805 22.5555C198.015 24.1666 198.177 25.6649 198.29 26.9377C198.402 28.2105 198.467 29.7088 198.467 31.4488V39.5044H193.868V17.561H200.323L206.777 34.4938C206.34 31.8303 206.108 29.1372 206.083 26.4383V17.561H210.715L210.682 39.3594Z" fill="#144676"/>
<path d="M107.313 69.1648H100.665L94.3717 52.2642C94.5761 53.929 94.7375 55.3952 94.8558 56.6626C94.9688 57.9353 95.0333 59.4337 95.0333 61.1737V69.2292H90.499V47.3665H96.9536L103.408 64.2831C102.97 61.6198 102.738 58.9266 102.714 56.2276V47.3665H107.345L107.313 69.1648Z" fill="#144676"/>
<path d="M116.559 52.4093C115.717 54.2327 115.345 56.2378 115.478 58.2415C115.342 60.2575 115.719 62.2752 116.575 64.106C116.933 64.6648 117.425 65.1248 118.008 65.4434C118.59 65.762 119.244 65.929 119.908 65.929C120.572 65.929 121.225 65.762 121.807 65.4434C122.39 65.1248 122.882 64.6648 123.24 64.106C124.101 62.2769 124.479 60.2578 124.337 58.2415C124.494 56.2313 124.121 54.215 123.256 52.3932C122.893 51.8414 122.399 51.3884 121.817 51.0749C121.235 50.7613 120.585 50.5972 119.924 50.5972C119.263 50.5972 118.612 50.7613 118.03 51.0749C117.449 51.3884 116.954 51.8414 116.592 52.3932M127.177 49.7993C129.028 52.2089 129.929 55.2127 129.71 58.2415C129.784 60.3677 129.393 62.4843 128.565 64.4443C127.86 66.0764 126.672 67.4539 125.16 68.3915C123.569 69.3432 121.737 69.8186 119.883 69.761C118.038 69.8089 116.216 69.3401 114.623 68.4076C113.118 67.4593 111.936 66.0773 111.234 64.4443C110.405 62.4893 110.004 60.38 110.056 58.2576C110.011 56.1671 110.413 54.091 111.234 52.1676C111.939 50.5405 113.12 49.1645 114.623 48.2204C116.209 47.2717 118.035 46.7965 119.883 46.851C121.24 46.7728 122.597 47.0001 123.854 47.516C125.111 48.0319 126.235 48.8233 127.145 49.8315" fill="#144676"/>
<path d="M137.778 57.275H139.94C140.875 57.3523 141.805 57.0699 142.538 56.4856C142.85 56.1564 143.089 55.7653 143.239 55.3378C143.389 54.9103 143.447 54.456 143.41 54.0045C143.448 53.5738 143.383 53.1403 143.22 52.7396C143.058 52.339 142.802 51.9828 142.474 51.7006C141.633 51.1539 140.634 50.8991 139.634 50.9756H137.778V57.275ZM139.795 60.8195H137.778V69.165H132.518V47.3667H139.682C142.032 47.2029 144.376 47.7654 146.395 48.9778C147.156 49.5624 147.76 50.3257 148.154 51.1999C148.549 52.0741 148.72 53.032 148.654 53.9884C148.698 55.2349 148.348 56.4636 147.653 57.5006C146.802 58.5567 145.69 59.373 144.426 59.8689L149.977 69.1489H144.233L139.795 60.8195Z" fill="#144676"/>
<path d="M173.278 69.1648H168.195L167.824 60.642C167.711 58.612 167.663 56.7915 167.663 55.1965C167.663 53.972 167.663 52.8281 167.76 51.7326L164.387 66.8609H159.546L155.948 51.7326C156.077 53.5531 156.142 55.277 156.142 56.8881C156.142 58.1126 156.109 59.3853 156.045 60.7065L155.658 69.1648H150.688L152.301 47.3665H158.756L161.983 62.1403L165.21 47.3665H171.665L173.278 69.1648Z" fill="#144676"/>
<path d="M180.975 60.7387H185.574L183.282 51.072L180.975 60.7387ZM187.591 69.1648L186.461 64.4765H180.103L178.99 69.1648H173.633L180.216 47.3665H186.493L193.077 69.1648H187.591Z" fill="#144676"/>
<path d="M211.198 69.1648H204.615L198.305 52.2642C198.51 53.929 198.671 55.3952 198.79 56.6626C198.902 57.9353 198.967 59.4337 198.967 61.1737V69.2292H194.368V47.3665H200.823L207.277 64.2831C206.831 61.6207 206.599 58.9269 206.583 56.2276V47.3665H211.215L211.198 69.1648Z" fill="#144676"/>
<path d="M220.074 51.1043V65.4271H221.784C222.509 65.4658 223.234 65.341 223.905 65.0621C224.575 64.7833 225.174 64.3573 225.657 63.8159C226.705 62.1139 227.169 60.1176 226.98 58.1287C227.04 56.6551 226.816 55.1837 226.319 53.7948C225.984 52.8965 225.345 52.1439 224.511 51.6682C223.641 51.2544 222.683 51.0555 221.72 51.0882L220.074 51.1043ZM229.223 49.6704C231.31 51.217 232.348 54.0419 232.337 58.1448C232.337 62.2048 231.321 65.0404 229.304 66.6998C227.062 68.4174 224.285 69.2903 221.462 69.1648H214.91V47.3665H220.994C223.914 47.2236 226.803 48.0321 229.223 49.6704Z" fill="#144676"/>
<path d="M240.293 47.3665H235.129V69.1648H240.293V47.3665Z" fill="#144676"/>
<path d="M257.446 47.3665L256.897 51.0398H249.216V56.2598H255.929V59.8848H249.216V65.4592H257.446V69.1648H244.053V47.3665H257.446Z" fill="#144676"/>
</svg>
