<svg width="98" height="87" viewBox="0 0 98 87" fill="none" xmlns="http://www.w3.org/2000/svg">
<g clip-path="url(#clip0_121_1398)">
<path d="M97.1774 0H0.510742V87H97.1774V0Z" fill="white"/>
<path d="M44.8051 31.9645V44.4238H40.8525V25.9927H45.5785L53.0111 38.4949V25.9927H56.9207V44.4238H52.2377L44.8051 31.9645Z" fill="#DB0039"/>
<path d="M33.5059 22.5557H40.8525V25.9927H37.2436V44.4238H40.8525V47.8179H33.5059V22.5557Z" fill="#DB0039"/>
<path d="M64.2676 47.8609H56.9209V44.4238H60.5298V25.9927H56.9209V22.5986H64.2676V47.8609Z" fill="#DB0039"/>
<path d="M5.88086 64.3586V56.6682H10.9505V57.8282H7.21271V59.8475H10.6927V61.0504H7.21271V64.4015L5.88086 64.3586Z" fill="#161B4B"/>
<path d="M15.3328 57.7853V60.4919H16.7936C17.8676 60.4919 18.555 60.1482 18.555 59.1171C18.555 58.1719 17.8676 57.7423 16.7936 57.7423L15.3328 57.7853ZM16.8795 61.6949H15.2469V64.3156H13.958V56.6682H16.8795C18.641 56.6682 19.801 57.6134 19.801 59.1601C19.8439 60.1912 19.2425 61.1793 18.2543 61.523L20.0158 64.4015H18.4691L16.8795 61.6949Z" fill="#161B4B"/>
<path d="M24.7848 61.4801H27.1478L25.9448 58.3867L24.7848 61.4801ZM29.6396 64.3586H28.2648L27.6204 62.726H24.3552L23.7107 64.3586H22.25L25.2574 56.6682H26.5463L29.6396 64.3586Z" fill="#161B4B"/>
<path d="M33.6776 58.9023V64.3586H32.3887V56.6682H33.6776L37.4583 62.0815V56.6682H38.8331V64.3586H37.4583L33.6776 58.9023Z" fill="#161B4B"/>
<path d="M48.8438 62.9839C48.1134 63.929 46.9534 64.4876 45.7504 64.4446C43.5593 64.4446 41.7549 62.6402 41.7549 60.449C41.7549 58.2579 43.5164 56.4964 45.6645 56.4535C46.8675 56.4105 47.9845 56.969 48.6719 57.9142L47.8556 58.8164C47.383 58.0861 46.5667 57.6564 45.7075 57.6564C44.1608 57.7424 43.0008 59.0313 43.0438 60.5779C43.1297 62.0387 44.2897 63.1987 45.7504 63.2416C46.6527 63.2416 47.469 62.812 47.9845 62.0816L48.8438 62.9839Z" fill="#161B4B"/>
<path d="M51.7656 56.6682H57.179V57.8282H53.0545V59.8475H56.9641V61.0504H53.0545V63.1986H57.179V64.4015H51.7656V56.6682Z" fill="#161B4B"/>
<path d="M66.3299 58.9023V64.3586H65.041V56.6682H66.3299L70.1106 62.0815V56.6682H71.3995V64.3586H70.1106L66.3299 58.9023Z" fill="#161B4B"/>
<path d="M79.7347 56.6682H81.0236V60.9216C81.0236 63.2845 79.7776 64.4445 77.8873 64.4445C75.9969 64.4445 74.751 63.2415 74.751 60.9216V56.6682H76.0399V61.0075C76.0399 62.4253 76.5125 63.3704 77.8013 63.3704C79.0902 63.3704 79.5628 62.4253 79.5628 61.0075L79.7347 56.6682Z" fill="#161B4B"/>
<path d="M85.7059 59.246V64.3586H84.417V56.6682H85.7918L88.1548 61.1793L90.5177 56.6682H91.8925V64.3586H90.6037V59.246L88.8422 62.6401H87.5962L85.7059 59.246Z" fill="#161B4B"/>
</g>
<defs>
<clipPath id="clip0_121_1398">
<rect width="96.6667" height="87" fill="white" transform="translate(0.510742)"/>
</clipPath>
</defs>
</svg>
